<svg id="Capa_1" enable-background="new 0 0 425.806 425.806" height="512" viewBox="0 0 425.806 425.806" width="512" xmlns="http://www.w3.org/2000/svg"><g><path d="m376.129 333.55c-49.677 56.774-113.548 70.968-191.613 70.968-34.065 0-51.452 6.671-58.974 10.929 14.052-9.865 54.432-41.09 66.071-81.897 14.194-49.677 21.29-184.516 198.71-134.839 0 0 35.483 78.064-14.194 134.839z" fill="#fa7a62"/><path d="m202.258 198.64c-12.261-5.433-25.647-7.843-39.032-7.026-52.019 0-94.6-9.439-127.742-47.335s-9.439-89.845-9.439-89.845c118.232-33.142 122.987 56.774 132.426 89.845 7.735 26.896 34.135 47.548 43.787 54.361z" fill="#fa7a62"/><g fill="#373737"><path d="m418.71 120.646c-3.919 0-7.097 3.177-7.097 7.097 0 50.841-23.419 64.041-24.534 64.652-.085.05-.135.135-.22.177-.331.21-.645.448-.937.71-.322.211-.625.449-.908.71-.099.114-.177.241-.27.362-.092.121-.142.106-.192.185-9.013 12.611-18.508 24.761-28.21 36.385l-95.657-20.978c21.212-12.937 50.799-18.927 93.032-12.15 3.87.619 7.51-2.016 8.129-5.887.619-3.87-2.016-7.51-5.887-8.129-132.546-21.262-154.667 76.454-166.568 128.927-1.59 6.983-3.087 13.583-4.606 18.899-10.808 37.847-48.79 67.668-62.728 77.568-2.333 1.218-4.494 2.738-6.43 4.521-2.77 2.773-2.767 7.267.006 10.036 2.336 2.333 5.972 2.747 8.772.999.397-.248 2.25-1.419 5.131-3.428 6.77-3.584 23.001-9.687 54.979-9.687 65.638 0 140.367-8.722 196.957-73.395 44.937-51.352 24.881-117.565 17.543-136.968 9.247-7.594 26.79-28.011 26.79-73.508.001-3.92-3.176-7.098-7.095-7.098zm-172.821 100.583 99.994 22c-7.43 8.516-14.903 16.663-22.348 24.463l-97.013-21.29c5.144-9.323 11.675-17.811 19.367-25.173zm41.793 81.861-77.121-16.826c2.544-9.126 5.697-18.072 9.439-26.776l91.875 20.126c-8.268 8.353-16.394 16.202-24.193 23.476zm33.447-12.653 13.69 70.67c-8.004 5.465-16.45 10.253-25.25 14.314l-11.915-62.239c7.578-7.083 15.456-14.69 23.475-22.745zm-164.532 108.68c19.232-17.223 33.66-39.146 41.871-63.623 1.618-5.677 3.158-12.462 4.79-19.644 1.15-5.081 2.356-10.397 3.697-15.854l67.937 14.825c-33.525 30.097-58.492 48.088-58.988 48.443-3.274 2.155-4.181 6.556-2.026 9.83s6.556 4.181 9.83 2.026c.152-.1.299-.205.443-.316 21.24-15.761 41.676-32.578 61.231-50.387l10.837 56.611c-30.239 11.312-66.405 16.394-111.703 16.394-9.333-.049-18.66.518-27.919 1.695zm190.84-47.513-14.236-73.53c7.175-7.501 14.392-15.336 21.567-23.476l14.726 75.68c-6.793 7.666-14.167 14.796-22.057 21.326zm33.518-36.712-14.399-74.026c7.366-8.8 14.612-17.891 21.638-27.252 6.387 20.503 15.258 63.814-7.239 101.278z"/><path d="m17.465 56.775c-5.365 14.904-17.032 58.194 12.675 92.173 38.351 43.851 88.802 49.763 133.086 49.763 12.056-.716 24.116 1.335 35.257 5.997 2.001 1.419 3.293 2.221 3.548 2.392 3.318 2.086 7.699 1.086 9.785-2.232 1.767-2.811 1.349-6.47-1.006-8.81-1.36-1.254-2.874-2.33-4.506-3.201-8.977-6.345-33.944-25.804-40.998-50.501-1.022-3.548-1.973-7.806-3.037-12.462-5.429-23.937-13.619-60.11-44.461-78.497-22.115-13.166-52.518-14.67-90.379-4.642-4.059-3.4-13.235-13.924-13.235-39.657 0-3.919-3.177-7.097-7.097-7.097s-7.097 3.178-7.097 7.097c0 29.196 10.702 43.539 17.465 49.677zm10.965 12.775c6.465 8.431 13.136 16.514 19.871 24.165l-8.665 44.39c-19.055-23.186-15.45-52.382-11.206-68.555zm101.633 12.987c5.629 8.817 9.933 18.412 12.774 28.479l-47.676 10.404c-8.183-7.657-16.862-16.216-25.619-25.548zm-44.845 49.131-7.097 37.066c-9.626-4.749-18.536-10.826-26.471-18.054l8.573-43.95c8.552 9.083 17.011 17.465 24.995 24.938zm90.264 53.311c-3.74-.298-7.799-.461-12.256-.461-24.315.75-48.579-2.668-71.741-10.106l6.039-31.531c21.028 18.657 36.612 29.913 37.925 30.85 3.247 2.196 7.659 1.343 9.854-1.904 2.116-3.13 1.41-7.369-1.608-9.643-.305-.22-15.215-11-35.633-29.047l38.465-8.395c.71 2.839 1.313 5.635 1.916 8.296 1.121 4.968 2.129 9.439 3.222 13.214 4.742 14.621 12.907 27.898 23.817 38.727zm-64.95-121.391c3.237 1.933 6.275 4.182 9.07 6.714l-61.068 13.484c-6.976-7.927-13.839-16.323-20.446-25.037 30.644-7.069 55.043-5.522 72.444 4.839z"/></g></g></svg>