<?xml version="1.0"?>
<svg xmlns="http://www.w3.org/2000/svg" id="Fill_out_line" data-name="Fill out line" viewBox="0 0 512 512" width="512" height="512"><path d="M24,312l0,0A119.99989,119.99989,0,0,0,96,336h0l3.00244,27.022A129.01153,129.01153,0,0,0,136,440l0,0,16-24,0,0a178.854,178.854,0,0,0,86.01564,68.25583L248,488l-19.07788-34.34019A90.61463,90.61463,0,0,1,224,376l0,0,23.76688,2.16063A123.73946,123.73946,0,0,1,344,439.99994L344,440l-8-56,17.08857-2.84809A199.67148,199.67148,0,0,0,480,304.00006L480,304l-33.58393,3.35839A140.74275,140.74275,0,0,1,360,288l0,0,24-40-.00006,0A285.8464,285.8464,0,0,1,252.0661,264.45179L248,264l.00006-.00008a276.06524,276.06524,0,0,1,164.69508-98.88026L440,160l-56-32,0-.00006A327.04431,327.04431,0,0,1,487.99994,24L488,24H422.48193A172.57819,172.57819,0,0,0,312.00005,64l0,0-8-32L261.79927,63.65055A82.80343,82.80343,0,0,0,232.17,106.09989l-5.88957,19.63191A82.80328,82.80328,0,0,1,184,176l0,0v0a105.5132,105.5132,0,0,1,12.98738-74.97891L200,96h-1.37261A54.62737,54.62737,0,0,0,160,112l0,0,1.06237-6.37423a150.81924,150.81924,0,0,0-8.735-80.80743L152,24,125.20434,54.14512A147.291,147.291,0,0,0,88,151.99994V152l-24-8,.15536.77681A176.34556,176.34556,0,0,0,96,216l0,0h0a48.28335,48.28335,0,0,1-44.23854-7.17893L40,200l-3.57613,14.30451A79.82716,79.82716,0,0,0,64,296l0,0Z" style="fill:#e88604"/><path d="M224.10205,203.48145c1.314-1.51618,2.65527-3.00373,3.98731-4.501l26.35937-10.54395a464.42934,464.42934,0,0,1,106.68262-28.51709l-2.2627-15.83886a480.464,480.464,0,0,0-103.62134,26.8637,456.98635,456.98635,0,0,1,92.63794-67.95111l-7.7705-13.98632A473.70334,473.70334,0,0,0,265.7063,140.179l13.88306-41.64917-15.17872-5.05958-22.77807,68.33411q-15.45851,14.88144-29.62134,31.19861l-81.50635,94.04572A355.07138,355.07138,0,0,0,143.95117,143.1167l-15.90234,1.7666a339.182,339.182,0,0,1-12.99951,138.00391l-6.438,20.923a110.51318,110.51318,0,0,0-30.95459-61.46692L66.34326,253.65674a94.41467,94.41467,0,0,1,26.53711,53.07471l2.676,18.73065L84.94275,336.51794A218.73643,218.73643,0,0,0,24,487.99988V488H56v-.00012a235.20949,235.20949,0,0,1,48.77686-143.40973l6.39-8.30713,4.64368,1.8576a86.0132,86.0132,0,0,1,45.03418,41.437l14.31054-7.15528a101.9934,101.9934,0,0,0-53.40234-49.1372l-.44946-.17975,6.91333-8.98731L130.05249,312h4.19116a664.99953,664.99953,0,0,1,144.021,15.80957l3.4707-15.61914a681.15163,681.15163,0,0,0-137.8772-16.11987Z" style="fill:#eb6d3b"/><path d="M495.68994,21.79492A7.99978,7.99978,0,0,0,488,16H422.48A180.92062,180.92062,0,0,0,316.7876,50.165l-5.02637-20.10547a7.99972,7.99972,0,0,0-12.561-4.45947L256.99951,57.25a90.22943,90.22943,0,0,0-32.49219,46.55078l-5.89013,19.63086A75.13149,75.13149,0,0,1,190.251,162.9375q-.3003-3.81592-.30078-7.6377a97.488,97.488,0,0,1,13.90136-50.166l3.00977-5.02A8,8,0,0,0,200,88h-1.37012a62.90958,62.90958,0,0,0-28.12353,6.70557A158.82547,158.82547,0,0,0,159.751,21.832l-.33008-.81982a8.00021,8.00021,0,0,0-13.40039-2.32715L119.2207,48.83545a155.12067,155.12067,0,0,0-38.834,92.19385l-13.85693-4.61866a7.99964,7.99964,0,0,0-10.36622,9.19874l.15186.73828A185.54725,185.54725,0,0,0,82.38477,210.4458a40.604,40.604,0,0,1-25.8252-8.02588L44.7998,193.6001a7.99936,7.99936,0,0,0-12.56,4.457l-3.58106,14.30322a88.12094,88.12094,0,0,0,20.68945,80.88428L21.02881,304.57227a8.00016,8.00016,0,0,0-1.82959,13.82714,127.80985,127.80985,0,0,0,50.677,22.88837A225.55893,225.55893,0,0,0,16,488a7.99977,7.99977,0,0,0,8,8H56a7.99977,7.99977,0,0,0,8-8A228.53591,228.53591,0,0,1,93.11987,376.77826a137.60113,137.60113,0,0,0,37.22339,68.87848,7.99978,7.99978,0,0,0,12.313-1.21924L152.2251,430.085a186.75476,186.75476,0,0,0,82.9873,61.666l9.98,3.74023a8.0003,8.0003,0,0,0,9.80078-11.377L235.91309,449.7749a82.25365,82.25365,0,0,1-6.48291-65.24853l17.61523,1.60107a115.81409,115.81409,0,0,1,90.0083,57.84131,8,8,0,0,0,14.86572-5.1001l-6.89453-48.26318,9.37989-1.56445A206.76254,206.76254,0,0,0,486.3999,308.7998a8,8,0,0,0-7.19629-12.76025L445.625,299.39941a133.77519,133.77519,0,0,1-74.522-14.355l19.75683-32.92822a8.00007,8.00007,0,0,0-9.66992-11.60644,276.7511,276.7511,0,0,1-97.5498,17.69043c-6.53614,0-13.11377-.23389-19.65967-.69776A268.05862,268.05862,0,0,1,414.1748,172.98291l27.29981-5.12012a8,8,0,0,0,2.49463-14.80859l-48.68018-27.81738a319.19574,319.19574,0,0,1,96.9502-94.45264A7.99921,7.99921,0,0,0,495.68994,21.79492ZM48.13428,480H32.14941A209.6786,209.6786,0,0,1,90.71387,342.05811l29.77832-31.019L98.436,339.7124A244.60254,244.60254,0,0,0,48.13428,480ZM424.4248,64.42139a334.98486,334.98486,0,0,0-47.209,59.33935,7.999,7.999,0,0,0,2.81494,11.18506l37.105,21.20313-5.90967,1.10839A284.02374,284.02374,0,0,0,241.75293,259.00244a8.00045,8.00045,0,0,0,5.36768,12.94922l4.064.44922a294.51526,294.51526,0,0,0,32.45557,1.79932,292.66283,292.66283,0,0,0,82.37548-11.77491l-12.87548,21.4585a8.00018,8.00018,0,0,0,2.74414,10.97656,149.76971,149.76971,0,0,0,91.332,20.46l14.18506-1.41943a190.70479,190.70479,0,0,1-109.62744,59.35791l-17.08985,2.8501a7.99964,7.99964,0,0,0-6.60351,9.02246l3.58593,25.103a131.83351,131.83351,0,0,0-83.17236-40.04151l-23.77-2.16016a7.99882,7.99882,0,0,0-8.15234,4.99708,98.23859,98.23859,0,0,0,5.355,84.51611l8.22656,14.80615a170.78149,170.78149,0,0,1-71.49707-60.78955,7.99959,7.99959,0,0,0-13.3125,0l-10.35791,15.53662a121.55782,121.55782,0,0,1-28.03418-64.95752l-.676-6.11981q2.36335-3.31623,4.842-6.554l7.71972-10.03558a85.99652,85.99652,0,0,1,42.00733,40.14545l14.31054-7.15528A101.96076,101.96076,0,0,0,128.821,326.45331l11.08765-14.41394a665.06033,665.06033,0,0,1,138.356,15.7702l3.4707-15.61914a681.23646,681.23646,0,0,0-129.67822-15.94409l65.92969-85.70856,6.11523-7.05633c1.314-1.51618,2.65527-3.00373,3.98731-4.501l26.35937-10.54395a464.42934,464.42934,0,0,1,106.68262-28.51709l-2.2627-15.83886a480.464,480.464,0,0,0-103.62134,26.8637,456.98635,456.98635,0,0,1,92.63794-67.95111l-7.7705-13.98632a473.70559,473.70559,0,0,0-74.40833,51.172l13.88294-41.649-15.17872-5.05958-22.77783,68.33393q-15.45867,14.88153-29.62158,31.19879l-.1217.14044A7.98637,7.98637,0,0,0,210.229,194.46l-75.85974,79.02069a354.8086,354.8086,0,0,0,9.58191-130.364l-15.90234,1.7666a339.17375,339.17375,0,0,1-13,138.00391l-4.85352,15.77466-2.07373,2.16027a110.56027,110.56027,0,0,0-30.46484-58.47888L66.34326,253.65674a94.41467,94.41467,0,0,1,26.53711,53.07471L94.12,315.407,82.78882,327.21033a111.87131,111.87131,0,0,1-41.5315-13.497l25.71387-10.28565a8,8,0,0,0,2.02686-13.67431,72.03072,72.03072,0,0,1-24.81787-73.51074l.65527-2.61622,2.12549,1.59424a56.26308,56.26308,0,0,0,51.56445,8.37012,7.99991,7.99991,0,0,0,3.875-12.39014A169.51509,169.51509,0,0,1,75.13721,156.145l10.333,3.44434A8,8,0,0,0,96,152a139.16029,139.16029,0,0,1,35.17969-92.53516l17.80517-20.03125a142.804,142.804,0,0,1,4.1836,64.88282l-1.06006,6.3706a8,8,0,0,0,13.54834,6.96973,46.88128,46.88128,0,0,1,19.56689-11.66455,113.49372,113.49372,0,0,0-9.06884,71.5747,8.00011,8.00011,0,0,0,11.42285,5.58838,91.14415,91.14415,0,0,0,46.36474-55.126l5.88965-19.62842A74.33569,74.33569,0,0,1,266.59961,70.0498l32.56152-24.42089,5.07764,20.31152A8,8,0,0,0,317.12256,70.145,164.84156,164.84156,0,0,1,422.48,32H462.0498A334.68246,334.68246,0,0,0,424.4248,64.42139Z"/></svg>
