<svg id="Capa_1" enable-background="new 0 0 512 512" height="512" viewBox="0 0 512 512" width="512" xmlns="http://www.w3.org/2000/svg"><path d="m436.786 312.959-9.283-18.565c-1.808-3.616-.64-8.012 2.723-10.255l39.019-26.013c2.017-1.345 3.317-3.53 3.537-5.944l6.715-73.861c.48-5.278-4.203-9.561-9.417-8.613l-72.879 13.251c-3.208.583-6.163 2.131-8.469 4.437l-42.265 42.265c-5.573 5.573-15 .601-13.547-7.146l17.16-91.521c1.026-5.473-3.704-10.3-9.197-9.384l-25.331 4.222c-5.533.922-10.278-3.978-9.178-9.479l4.394-21.97c.859-4.293-.076-8.751-2.587-12.338l-45.615-65.164c-3.191-4.559-9.943-4.559-13.134 0l-45.615 65.164c-2.511 3.587-3.445 8.045-2.587 12.338l4.394 21.97c1.1 5.501-3.645 10.401-9.178 9.479l-25.331-4.222c-5.493-.915-10.223 3.911-9.197 9.384l20.749 94.006c1.452 7.746-11.561 10.235-17.134 4.662l-42.265-42.265c-2.306-2.306-5.26-3.854-8.469-4.437l-72.879-13.252c-5.214-.948-9.897 3.335-9.417 8.613l6.715 73.861c.219 2.414 1.52 4.599 3.537 5.944l39.019 26.013c3.364 2.242 4.531 6.639 2.723 10.255l-9.283 18.565c-1.98 3.96-.375 8.775 3.585 10.755l27.205 13.603c5.791 2.896 5.938 11.107.254 14.207l-61.241 33.404c-5.684 3.1-5.537 11.312.254 14.207l45.976 22.988c2.716 1.358 4.431 4.134 4.431 7.17v10.138c0 4.778 4.153 8.495 8.901 7.967l57.688-6.41c3.338-.371 6.553 1.378 8.055 4.382l8.273 16.545c2.527 5.054 9.349 5.977 13.128 1.778l58.319-64.798c3.184-3.538 8.732-3.538 11.917 0l61.041 55.438c3.78 4.2 7.878 12.636 10.405 7.582l8.273-16.545c1.502-3.004 4.717-4.753 8.055-4.382l57.688 6.41c4.749.528 8.901-3.189 8.901-7.967v-10.138c0-3.036 1.715-5.812 4.431-7.17l45.976-22.988c5.791-2.896 5.938-11.107.254-14.207l-61.241-33.404c-5.684-3.1-5.537-11.312.254-14.207l27.205-13.603c3.96-1.98 5.565-6.795 3.585-10.755z" fill="#ffc250"/><g fill="#ffa95f"><path d="m471.135 392.274c-.105 2.745-1.568 5.442-4.405 6.861l-45.976 22.988c-2.716 1.358-4.431 4.134-4.431 7.17v10.138c0 4.778-4.153 8.495-8.901 7.967l-57.689-6.41c-3.338-.371-6.553 1.378-8.055 4.382l-8.273 16.545c-2.527 5.054-9.348 5.977-13.128 1.778l-58.319-64.798c-1.592-1.769-3.775-2.654-5.958-2.654v-3.966h215.135z"/><path d="m256 392.274 220.734-220.734c1.869 1.611 3.011 4.054 2.763 6.78l-6.715 73.862c-.219 2.414-1.52 4.599-3.536 5.944l-39.019 26.013c-3.364 2.242-4.531 6.639-2.723 10.255l9.283 18.565c1.98 3.96.375 8.775-3.585 10.755l-27.205 13.603c-3.437 1.718-4.834 5.303-4.257 8.586z"/><path d="m40.865 392.274c.105 2.745 1.568 5.442 4.405 6.861l45.976 22.988c2.716 1.358 4.431 4.134 4.431 7.17v10.138c0 4.778 4.153 8.495 8.901 7.967l57.689-6.41c3.338-.371 6.553 1.378 8.055 4.382l8.273 16.545c2.527 5.054 9.348 5.977 13.128 1.778l58.319-64.798c1.592-1.769 3.775-2.654 5.958-2.654v-3.966h-215.135z"/><path d="m256 392.274-220.734-220.733c-1.869 1.611-3.011 4.054-2.763 6.78l6.715 73.862c.219 2.414 1.52 4.599 3.536 5.944l39.019 26.013c3.364 2.242 4.531 6.639 2.723 10.255l-9.283 18.565c-1.98 3.96-.375 8.775 3.585 10.755l27.205 13.603c3.437 1.718 4.834 5.303 4.257 8.586z"/><path d="m332.92 222.516 15.573-83.058-92.493 92.494-92.494-92.494 15.573 83.058c.956 5.098-2.807 8.921-7.076 9.401l83.997 160.357 83.997-160.357c-4.269-.48-8.033-4.303-7.077-9.401z"/></g><path d="m400.291 399.774c4.142 0 7.5-3.358 7.5-7.5s-3.358-7.5-7.5-7.5h-126.185l163.552-163.552c2.929-2.929 2.929-7.678 0-10.606-2.929-2.929-7.678-2.929-10.606 0l-163.552 163.552v-139.11l45.9-45.9c2.929-2.929 2.929-7.678 0-10.606-2.929-2.929-7.678-2.929-10.606 0l-35.294 35.293v-134.2c0-4.142-3.358-7.5-7.5-7.5s-7.5 3.358-7.5 7.5v134.2l-35.293-35.293c-2.929-2.929-7.678-2.929-10.606 0-2.929 2.929-2.929 7.678 0 10.606l45.9 45.9v139.11l-163.553-163.552c-2.929-2.929-7.678-2.929-10.606 0-2.929 2.929-2.929 7.678 0 10.606l163.552 163.552h-126.185c-4.142 0-7.5 3.358-7.5 7.5s3.358 7.5 7.5 7.5h127.45l-53.518 59.464-11.111-22.222c-1.404-2.81-4.411-4.446-7.536-4.1l-63.817 7.091v-15.669c0-2.841-1.605-5.438-4.146-6.708l-51.291-25.646 75.576-41.224c2.452-1.337 3.958-3.926 3.908-6.718s-1.647-5.326-4.145-6.574l-41.388-20.694 12.678-25.356c1.692-3.383.6-7.496-2.548-9.594l-45.112-30.075-6.798-74.783 76.168 13.849 62.473 62.472c2.929 2.929 7.678 2.929 10.606 0 2.929-2.929 2.929-7.678 0-10.606l-64.129-64.129c-1.079-1.079-2.46-1.803-3.961-2.076l-88.178-16.032c-2.308-.423-4.674.262-6.403 1.844s-2.62 3.88-2.408 6.214l8.016 88.177c.206 2.259 1.422 4.303 3.309 5.561l42.588 28.392-13.071 26.143c-1.853 3.705-.351 8.21 3.354 10.062l35.258 17.629-75.576 41.224c-2.452 1.337-3.958 3.926-3.908 6.718s1.647 5.326 4.145 6.574l59.983 29.992v19.413c0 2.133.909 4.166 2.498 5.588 1.59 1.423 3.711 2.103 5.83 1.866l66.948-7.438 13.694 27.387c1.109 2.219 3.244 3.745 5.702 4.078.336.045.672.068 1.007.068 2.11 0 4.142-.891 5.574-2.483l59.07-65.634v92.681c0 4.142 3.358 7.5 7.5 7.5s7.5-3.358 7.5-7.5v-104.726z"/><path d="m484.043 385.69-75.576-41.224 35.258-17.629c3.705-1.852 5.207-6.357 3.354-10.062l-13.071-26.143 42.588-28.392c1.887-1.258 3.104-3.302 3.309-5.561l8.016-88.177c.212-2.333-.679-4.632-2.408-6.214-1.729-1.581-4.097-2.265-6.403-1.844l-88.177 16.032c-1.501.273-2.883.997-3.961 2.076l-46.987 46.986 19.581-104.43c.451-2.407-.301-4.883-2.015-6.632-1.714-1.748-4.173-2.55-6.589-2.148l-37.378 6.229 5.885-29.425c.401-2.008-.036-4.094-1.21-5.771l-56.115-80.162c-1.403-2.005-3.697-3.199-6.144-3.199s-4.741 1.194-6.144 3.199l-56.113 80.161c-1.175 1.678-1.612 3.763-1.21 5.771l5.885 29.425-37.378-6.229c-2.414-.401-4.875.399-6.589 2.148s-2.466 4.225-2.015 6.632l13.526 72.143c.763 4.071 4.679 6.752 8.754 5.989 4.071-.763 6.752-4.683 5.989-8.754l-11.549-61.599 37.515 6.252c2.431.406 4.906-.41 6.621-2.181 1.714-1.771 2.45-4.271 1.966-6.688l-7.387-36.936 48.129-68.754 48.129 68.756-7.387 36.936c-.483 2.417.252 4.917 1.966 6.688 1.715 1.771 4.189 2.585 6.621 2.181l37.515-6.252-22.071 117.714c-.606 3.232.964 6.482 3.873 8.016 2.908 1.534 6.477.995 8.802-1.331l62.473-62.472 76.168-13.849-6.798 74.783-45.112 30.075c-3.147 2.098-4.24 6.211-2.548 9.594l12.678 25.356-41.388 20.694c-2.498 1.249-4.095 3.782-4.145 6.574s1.456 5.381 3.908 6.718l75.576 41.224-51.291 25.646c-2.541 1.27-4.146 3.867-4.146 6.708v15.669l-63.817-7.091c-3.125-.344-6.131 1.29-7.536 4.1l-11.111 22.222-32.72-36.355c-2.771-3.079-7.513-3.329-10.592-.558s-3.329 7.513-.558 10.592l40.081 44.535c1.433 1.592 3.464 2.483 5.574 2.483.334 0 .67-.022 1.007-.068 2.458-.333 4.593-1.859 5.702-4.078l13.694-27.387 66.948 7.438c2.117.235 4.24-.443 5.83-1.866 1.589-1.423 2.498-3.455 2.498-5.588v-19.413l59.983-29.992c2.498-1.249 4.095-3.782 4.145-6.574.049-2.791-1.456-5.38-3.908-6.717z"/></svg>